{
  "accessors": [
    {
      "bufferView": 2,
      "componentType": 5126,
      "count": 6143,
      "max": [
        2.8872976303100586,
        13.27040958404541,
        8.7241334915161133
      ],
      "min": [
        -3.962552547454834,
        1.0952203273773193,
        -0.7410966157913208
      ],
      "type": "VEC3"
    },
    {
      "bufferView": 2,
      "byteOffset": 73716,
      "componentType": 5126,
      "count": 6143,
      "max": [
        1,
        1,
        1
      ],
      "min": [
        -1,
        -1,
        -1
      ],
      "type": "VEC3"
    },
    {
      "bufferView": 3,
      "componentType": 5126,
      "count": 6143,
      "max": [
        1,
        1,
        0.99998384714126587,
        1
      ],
      "min": [
        -0.99999982118606567,
        -0.99975764751434326,
        -0.9999995231628418,
        -1
      ],
      "type": "VEC4"
    },
    {
      "bufferView": 1,
      "componentType": 5126,
      "count": 6143,
      "max": [
        0.99695426225662231,
        0.99835348129272461
      ],
      "min": [
        0.0012319684028625488,
        0.0032483339309692383
      ],
      "type": "VEC2"
    },
    {
      "bufferView": 0,
      "componentType": 5125,
      "count": 24681,
      "max": [
        6142
      ],
      "min": [
        0
      ],
      "type": "SCALAR"
    }
  ],
  "asset": {
    "extras": {
      "author": "JaysonStauffer (https://sketchfab.com/JaysonStauffer)",
      "license": "CC-BY-4.0 (http://creativecommons.org/licenses/by/4.0/)",
      "source": "https://sketchfab.com/3d-models/6-axis-industrial-robot-arm-3ecc74c22c584b2b8295f17dedcdb89f",
      "title": "6 Axis Industrial Robot Arm"
    },
    "generator": "Sketchfab-8.42.0",
    "version": "2.0"
  },
  "bufferViews": [
    {
      "buffer": 0,
      "byteLength": 98724,
      "byteOffset": 0,
      "name": "floatBufferViews",
      "target": 34963
    },
    {
      "buffer": 0,
      "byteLength": 49144,
      "byteOffset": 98724,
      "byteStride": 8,
      "name": "floatBufferViews",
      "target": 34962
    },
    {
      "buffer": 0,
      "byteLength": 147432,
      "byteOffset": 147868,
      "byteStride": 12,
      "name": "floatBufferViews",
      "target": 34962
    },
    {
      "buffer": 0,
      "byteLength": 98288,
      "byteOffset": 295300,
      "byteStride": 16,
      "name": "floatBufferViews",
      "target": 34962
    }
  ],
  "buffers": [
    {
      "byteLength": 393588,
      "uri": "scene.bin"
    }
  ],
  "images": [
    {
      "uri": "textures/Hansrobottt2_svgBlinn1_baseColor.png"
    },
    {
      "uri": "textures/Hansrobottt2_svgBlinn1_metallicRoughness.png"
    },
    {
      "uri": "textures/Hansrobottt2_svgBlinn1_normal.png"
    }
  ],
  "materials": [
    {
      "doubleSided": true,
      "name": "Hansrobottt2_svgBlinn1",
      "normalTexture": {
        "index": 2,
        "scale": 1,
        "texCoord": 0
      },
      "occlusionTexture": {
        "index": 1,
        "strength": 1,
        "texCoord": 0
      },
      "pbrMetallicRoughness": {
        "baseColorFactor": [
          1,
          1,
          1,
          1
        ],
        "baseColorTexture": {
          "index": 0,
          "texCoord": 0
        },
        "metallicFactor": 1,
        "metallicRoughnessTexture": {
          "index": 1,
          "texCoord": 0
        },
        "roughnessFactor": 1
      }
    }
  ],
  "meshes": [
    {
      "name": "robolow_Hansrobottt2_svgBlinn1_0",
      "primitives": [
        {
          "attributes": {
            "NORMAL": 1,
            "POSITION": 0,
            "TANGENT": 2,
            "TEXCOORD_0": 3
          },
          "indices": 4,
          "material": 0,
          "mode": 4
        }
      ]
    }
  ],
  "nodes": [
    {
      "children": [
        1
      ],
      "name": "RootNode (gltf orientation matrix)",
      "rotation": [
        -0.70710678118654746,
        -0,
        -0,
        0.70710678118654757
      ]
    },
    {
      "children": [
        2
      ],
      "matrix": [
        0.10566530376672745,
        0,
        0,
        0,
        0,
        0.10566530376672745,
        0,
        0,
        0,
        0,
        0.10566530376672745,
        0,
        0,
        0,
        0,
        1
      ],
      "name": "RootNode (model correction matrix)"
    },
    {
      "children": [
        3
      ],
      "matrix": [
        1,
        0,
        0,
        0,
        0,
        0,
        1,
        0,
        0,
        -1,
        0,
        0,
        0,
        0,
        0,
        1
      ],
      "name": "4a6e9b15bf4848a4a4f704dc9fbb389e.fbx"
    },
    {
      "children": [
        4
      ],
      "name": "RootNode"
    },
    {
      "children": [
        5
      ],
      "name": "robolow"
    },
    {
      "mesh": 0,
      "name": "robolow_Hansrobottt2_svgBlinn1_0"
    }
  ],
  "samplers": [
    {
      "magFilter": 9729,
      "minFilter": 9987,
      "wrapS": 10497,
      "wrapT": 10497
    }
  ],
  "scene": 0,
  "scenes": [
    {
      "name": "OSG_Scene",
      "nodes": [
        0
      ]
    }
  ],
  "textures": [
    {
      "sampler": 0,
      "source": 0
    },
    {
      "sampler": 0,
      "source": 1
    },
    {
      "sampler": 0,
      "source": 2
    }
  ]
}

