{
  "accessors": [
    {
      "bufferView": 2,
      "componentType": 5126,
      "count": 229,
      "max": [
        1.0013580322265625e-05,
        40.640972137451172,
        -9.3089050778871751e-07
      ],
      "min": [
        -24.386917114257812,
        -40.640972137451172,
        -41.860725402832031
      ],
      "type": "VEC3"
    },
    {
      "bufferView": 2,
      "byteOffset": 2748,
      "componentType": 5126,
      "count": 229,
      "max": [
        0.88502448797225952,
        0.97902196645736694,
        1
      ],
      "min": [
        -0.98493921756744385,
        -0.97902196645736694,
        -0.99876797199249268
      ],
      "type": "VEC3"
    },
    {
      "bufferView": 3,
      "componentType": 5126,
      "count": 229,
      "max": [
        0.9735608696937561,
        0.99233895540237427,
        0.99826228618621826,
        1
      ],
      "min": [
        -1,
        -0.94410973787307739,
        -0.99787276983261108,
        1
      ],
      "type": "VEC4"
    },
    {
      "bufferView": 1,
      "componentType": 5126,
      "count": 229,
      "max": [
        0.99696379899978638,
        0.99486750364303589
      ],
      "min": [
        0.020351555198431015,
        0.0061773089691996574
      ],
      "type": "VEC2"
    },
    {
      "bufferView": 1,
      "byteOffset": 1832,
      "componentType": 5126,
      "count": 229,
      "max": [
        0.99696379899978638,
        0.99486750364303589
      ],
      "min": [
        0.020351555198431015,
        0.0061773089691996574
      ],
      "type": "VEC2"
    },
    {
      "bufferView": 1,
      "byteOffset": 3664,
      "componentType": 5126,
      "count": 229,
      "max": [
        0.99696379899978638,
        0.99486750364303589
      ],
      "min": [
        0.020351555198431015,
        0.0061773089691996574
      ],
      "type": "VEC2"
    },
    {
      "bufferView": 0,
      "componentType": 5125,
      "count": 465,
      "max": [
        228
      ],
      "min": [
        0
      ],
      "type": "SCALAR"
    }
  ],
  "asset": {
    "extras": {
      "author": "luisgomezmoreno (https://sketchfab.com/luisgomezmoreno)",
      "license": "CC-BY-4.0 (http://creativecommons.org/licenses/by/4.0/)",
      "source": "https://sketchfab.com/3d-models/sun-themed-lamp-19b1dabd85334419aeba538f8f2d7fad",
      "title": "Sun-themed lamp"
    },
    "generator": "Sketchfab-6.49.1",
    "version": "2.0"
  },
  "bufferViews": [
    {
      "buffer": 0,
      "byteLength": 1860,
      "byteOffset": 0,
      "name": "floatBufferViews",
      "target": 34963
    },
    {
      "buffer": 0,
      "byteLength": 5496,
      "byteOffset": 1860,
      "byteStride": 8,
      "name": "floatBufferViews",
      "target": 34962
    },
    {
      "buffer": 0,
      "byteLength": 5496,
      "byteOffset": 7356,
      "byteStride": 12,
      "name": "floatBufferViews",
      "target": 34962
    },
    {
      "buffer": 0,
      "byteLength": 3664,
      "byteOffset": 12852,
      "byteStride": 16,
      "name": "floatBufferViews",
      "target": 34962
    }
  ],
  "buffers": [
    {
      "byteLength": 16516,
      "uri": "scene.bin"
    }
  ],
  "images": [
    {
      "uri": "textures/07_-_Default_baseColor.png"
    },
    {
      "uri": "textures/07_-_Default_metallicRoughness.png"
    },
    {
      "uri": "textures/07_-_Default_emissive.png"
    },
    {
      "uri": "textures/07_-_Default_normal.png"
    }
  ],
  "materials": [
    {
      "doubleSided": false,
      "emissiveFactor": [
        1,
        1,
        1
      ],
      "emissiveTexture": {
        "index": 2,
        "texCoord": 0
      },
      "name": "07_-_Default",
      "normalTexture": {
        "index": 3,
        "scale": 1,
        "texCoord": 0
      },
      "pbrMetallicRoughness": {
        "baseColorFactor": [
          1,
          1,
          1,
          1
        ],
        "baseColorTexture": {
          "index": 0,
          "texCoord": 0
        },
        "metallicFactor": 1,
        "metallicRoughnessTexture": {
          "index": 1,
          "texCoord": 0
        },
        "roughnessFactor": 0.71999999999999997
      }
    }
  ],
  "meshes": [
    {
      "name": "Lampara_07 - Default_0",
      "primitives": [
        {
          "attributes": {
            "NORMAL": 1,
            "POSITION": 0,
            "TANGENT": 2,
            "TEXCOORD_0": 3,
            "TEXCOORD_1": 4,
            "TEXCOORD_2": 5
          },
          "indices": 6,
          "material": 0,
          "mode": 4
        }
      ]
    }
  ],
  "nodes": [
    {
      "children": [
        1
      ],
      "name": "RootNode (gltf orientation matrix)",
      "rotation": [
        -0.70710678118654746,
        -0,
        -0,
        0.70710678118654757
      ]
    },
    {
      "children": [
        2
      ],
      "name": "RootNode (model correction matrix)"
    },
    {
      "children": [
        3
      ],
      "matrix": [
        1,
        0,
        0,
        0,
        0,
        0,
        1,
        0,
        0,
        -1,
        0,
        0,
        0,
        0,
        0,
        1
      ],
      "name": "fe892c9ea5424880b7ffbfb35ea92add.fbx"
    },
    {
      "children": [
        4
      ],
      "name": "RootNode"
    },
    {
      "children": [
        5
      ],
      "matrix": [
        1.1102692317087399e-07,
        -1.4099832200981251e-16,
        -2.5399999618530256,
        0,
        -2.5399999618530256,
        0,
        -1.1102692359386895e-07,
        0,
        1.4099832200981251e-16,
        2.5399999618530278,
        -5.6399328803925005e-16,
        0,
        0,
        0,
        0,
        1
      ],
      "name": "Lampara"
    },
    {
      "mesh": 0,
      "name": "Lampara_07 - Default_0"
    }
  ],
  "samplers": [
    {
      "magFilter": 9729,
      "minFilter": 9987,
      "wrapS": 10497,
      "wrapT": 10497
    }
  ],
  "scene": 0,
  "scenes": [
    {
      "name": "OSG_Scene",
      "nodes": [
        0
      ]
    }
  ],
  "textures": [
    {
      "sampler": 0,
      "source": 0
    },
    {
      "sampler": 0,
      "source": 1
    },
    {
      "sampler": 0,
      "source": 2
    },
    {
      "sampler": 0,
      "source": 3
    }
  ]
}

